<?xml version="1.0" encoding="utf-8"?>
<!-- Generator: Adobe Illustrator 18.1.1, SVG Export Plug-In . SVG Version: 6.00 Build 0)  -->
<svg version="1.1" baseProfile="tiny" id="Layer_1" xmlns="http://www.w3.org/2000/svg" xmlns:xlink="http://www.w3.org/1999/xlink"
	 x="0px" y="0px" viewBox="0 0 531.9 131.2" xml:space="preserve">
<path fill="#FFFFFF" d="M190.9,101.5l-16.9-25l-6.3,5.6v19.3c0,2.5-2,4.4-4.5,4.4h-6.7c-2.5,0-4.5-1.9-4.5-4.4V25.6
	c0-2.5,2-4.5,4.5-4.5h6.7c2.5,0,4.5,2,4.5,4.5v36.8L184,48.2c1.8-1.5,4-2.4,6.4-2.4h9.8c3,0,4.4,3.8,2.1,5.8l-17,15l23,34
	c1.5,2.1,0,5.1-2.7,5.1h-6.4C195.8,105.8,192.8,104.2,190.9,101.5"/>
<path fill="#FFFFFF" d="M218.3,105.8c-2.5,0-4.5-1.9-4.5-4.4V25.6c0-2.5,2-4.5,4.5-4.5h6.7c2.5,0,4.5,2,4.5,4.5v75.8
	c0,2.5-2,4.4-4.5,4.4H218.3z"/>
<path fill="#FFFFFF" d="M234.2,29.1c0-4.9,3.9-8.8,8.8-8.8c4.9,0,8.8,3.9,8.8,8.8c0,4.9-3.9,8.8-8.8,8.8
	C238.2,37.9,234.2,33.9,234.2,29.1 M250.9,50.4v51c0,2.4-2,4.4-4.5,4.4h-6.7c-2.5,0-4.5-2-4.5-4.4v-51c0-2.5,2-4.5,4.5-4.5h6.7
	C248.9,45.8,250.9,47.9,250.9,50.4"/>
<path fill="#FFFFFF" d="M317.7,76c0,16.8-13.7,30.6-30.6,30.6c-6.4,0-11.3-2-14.9-5.5v25.6c0,2.5-2,4.5-4.4,4.5h-6.8
	c-2.5,0-4.5-2-4.5-4.5V50.4c0-2.5,2-4.5,4.5-4.5h6.8c2.4,0,4.4,2,4.4,4.5v0.5c3.6-3.4,8.4-5.5,14.9-5.5
	C304.1,45.4,317.7,59.2,317.7,76 M302,76c0-8.2-6.7-14.9-14.9-14.9c-8.2,0-14.9,6.7-14.9,14.9c0,8.1,6.7,14.7,14.9,14.7
	C295.4,90.8,302,84.1,302,76"/>
<path fill="#FFFFFF" d="M323.2,69.7c2.3-12,12-21.8,24-24c11.4-2.1,22.4,1.9,29.4,10.3c1.5,1.8,1.1,4.5-1,5.7l-6.8,4.3
	c-1.7,1-3.8,0.6-5.1-0.8c-3.6-3.5-8.7-5.1-13.9-3.9c-5.6,1.2-10.2,5.9-11.2,11.7c-1.8,9.4,5.5,17.6,14.5,17.6c4,0,7.8-1.7,10.6-4.4
	c1.3-1.4,3.4-1.8,5.1-0.8l6.8,4.3c2,1.2,2.5,3.9,1.1,5.7c-5.8,6.9-14.3,10.9-23.6,10.9C334.4,106.3,319.4,89.1,323.2,69.7"/>
<path fill="#FFFFFF" d="M386.8,105.8c-2.5,0-4.5-1.9-4.5-4.4V25.6c0-2.5,2-4.5,4.5-4.5h6.7c2.5,0,4.5,2,4.5,4.5v75.8
	c0,2.5-2,4.4-4.5,4.4H386.8z"/>
<path fill="#FFFFFF" d="M454.2,45.8c2.5,0,4.5,2,4.5,4.5v50.8c0,2.6-2.1,4.6-4.6,4.6h-6.7c-2.5,0-4.5-2-4.5-4.4v-7.6
	c0,0-2,12.1-16.3,12.1c-16.1,0-23.8-14.4-23.8-33.7V50.4c0-2.5,2-4.5,4.5-4.5h6.8c2.5,0,4.5,2,4.5,4.5v21.4
	c0,11.2,3.2,18.9,12.1,18.9c6.7,0,12.1-7.1,12.1-21.6V50.4c0-2.5,2-4.5,4.5-4.5H454.2z"/>
<path fill="#FFFFFF" d="M524.6,76c0,16.8-13.7,30.6-30.6,30.6c-6.4,0-11.3-2-14.9-5.5v0.2c0,2.4-2,4.4-4.4,4.4H468
	c-2.5,0-4.5-2-4.5-4.4V25.6c0-2.5,2-4.5,4.5-4.5h6.8c2.4,0,4.4,2,4.4,4.5v25.2c3.6-3.4,8.4-5.5,14.9-5.5
	C510.9,45.4,524.6,59.2,524.6,76 M508.9,76c0-8.2-6.7-14.9-14.9-14.9s-14.9,6.7-14.9,14.9c0,8.1,6.7,14.7,14.9,14.7
	S508.9,84.1,508.9,76"/>
<path fill="#54BA5D" d="M104.2,132H27.8C12.4,132,0,119.6,0,104.2V27.8C0,12.4,12.4,0,27.8,0h76.5C119.6,0,132,12.4,132,27.8v76.5
	C132,119.6,119.6,132,104.2,132"/>
<path fill="#221F20" d="M83.1,107.7c0.9,0.9,2.1,1.4,3.3,1.4s2.4-0.5,3.3-1.4l8.3-8.3c1.8-1.8,1.8-4.8,0-6.7l-29-29L95.8,37
	c1.8-1.8,1.8-4.8,0-6.6l-8.3-8.3c-0.9-0.9-2.1-1.4-3.3-1.4c-1.2,0-2.4,0.5-3.3,1.4L51,52v23.6L83.1,107.7z"/>
<path fill="#221F20" d="M39.9,69.7c-1.6-1.6-2.5-3.7-2.5-5.9c0-2.2,0.9-4.4,2.5-6L51,46.7V27.5c0-3.2-2.6-5.8-5.8-5.8h-9.5
	c-3.2,0-5.8,2.6-5.8,5.8v76c0,3.2,2.6,5.8,5.8,5.8h9.5c3.2,0,5.8-2.6,5.8-5.8V80.9L48.2,78L39.9,69.7z"/>
<path fill="#221F20" d="M98.1,92.7l-29-29L95.8,37c1.8-1.8,1.8-4.8,0-6.6l-8.3-8.3c-1.8-1.8-4.8-1.8-6.6,0L42.5,60.5
	c-1.8,1.8-1.8,4.8,0,6.6l0,0l8.3,8.3l32.3,32.3c1.8,1.8,4.8,1.8,6.7,0l8.3-8.3C99.9,97.6,99.9,94.6,98.1,92.7"/>
</svg>
