<?xml version="1.0" encoding="utf-8"?>
<!-- Generator: Adobe Illustrator 18.1.1, SVG Export Plug-In . SVG Version: 6.00 Build 0)  -->
<svg version="1.1" baseProfile="tiny" id="Layer_1" xmlns="http://www.w3.org/2000/svg" xmlns:xlink="http://www.w3.org/1999/xlink"
	 x="0px" y="0px" viewBox="0 0 542 542" xml:space="preserve">
<g>
	<path fill="#54BA5D" d="M428,542H114C51,542,0,491,0,428V114C0,51,51,0,114,0H428c63,0,114,51,114,114v314C542,491,491,542,428,542
		"/>
	<path fill="#221F20" d="M341.4,442.2c3.8,3.8,8.7,5.7,13.7,5.7s9.9-1.9,13.7-5.7l34-34c7.5-7.6,7.5-19.8,0-27.4l-119-119L393.5,152
		c7.5-7.5,7.5-19.6,0-27.1l-34.2-34.2c-3.8-3.8-8.7-5.6-13.6-5.6c-4.9,0-9.8,1.9-13.6,5.6L209.6,213.3v97L341.4,442.2z"/>
	<path fill="#221F20" d="M163.7,286.3c-6.5-6.5-10.1-15.2-10.1-24.4c0-9.2,3.6-17.9,10.1-24.4l45.8-45.8V113
		c0-13.2-10.7-23.9-23.9-23.9h-38.9c-13.2,0-23.9,10.7-23.9,23.9v312c0,13.2,10.7,23.9,23.9,23.9h38.9c13.2,0,23.9-10.7,23.9-23.9
		v-92.9L198,320.5L163.7,286.3z"/>
	<path fill="#221F20" d="M402.7,380.8l-119-119L393.5,152c7.5-7.5,7.5-19.6,0-27.1l-34.2-34.2c-7.5-7.5-19.6-7.5-27.1,0L174.6,248.3
		c-7.5,7.5-7.5,19.6,0,27.1l0.1,0.1l34.1,34.1l132.5,132.5c7.6,7.5,19.8,7.5,27.4,0l34-34C410.3,400.6,410.3,388.4,402.7,380.8"/>
</g>
</svg>
